<?xml version="1.0" encoding="UTF-8"?>
<!-- Generator: Adobe Illustrator 15.1.0, SVG Export Plug-In . SVG Version: 6.00 Build 0)  -->
<!DOCTYPE svg PUBLIC "-//W3C//DTD SVG 1.1//EN" "http://www.w3.org/Graphics/SVG/1.1/DTD/svg11.dtd">
<svg version="1.1" id="Layer_1" xmlns="http://www.w3.org/2000/svg" xmlns:xlink="http://www.w3.org/1999/xlink" x="0px" y="0px" width="403.368px" height="108.68px" viewBox="0 0 403.368 108.68" enable-background="new 0 0 403.368 108.68" xml:space="preserve">
<g>
	<polygon fill="#959393" stroke="#FFFFFF" stroke-width="2.8347" stroke-miterlimit="10" points="64.617,67.011 16.816,49.617    34.216,1.816 82.014,19.211  "/>
	
		<rect x="18.862" y="16.207" transform="matrix(0.8198 0.5727 -0.5727 0.8198 36.4393 -20.2647)" fill="#717072" stroke="#FFFFFF" stroke-width="2.8347" stroke-miterlimit="10" width="63.107" height="63.106"/>
	
		<rect x="16.184" y="24.033" transform="matrix(0.7071 0.7071 -0.7071 0.7071 55.9655 -18.5833)" fill="#4C4C4D" stroke="#FFFFFF" stroke-width="2.8347" stroke-miterlimit="10" width="68.462" height="68.463"/>
	
		<linearGradient id="SVGID_1_" gradientUnits="userSpaceOnUse" x1="126.6016" y1="-156.085" x2="195.062" y2="-156.085" gradientTransform="matrix(0.6774 0.6774 -0.7071 0.7071 -160.7439 51.511)">
		<stop offset="0" style="stop-color:#BBD640"/>
		<stop offset="0.2976" style="stop-color:#BAD542"/>
		<stop offset="0.4048" style="stop-color:#B4D449"/>
		<stop offset="0.4812" style="stop-color:#A9D156"/>
		<stop offset="0.543" style="stop-color:#9ACD66"/>
		<stop offset="0.5959" style="stop-color:#86C879"/>
		<stop offset="0.6419" style="stop-color:#6AC28D"/>
		<stop offset="0.68" style="stop-color:#41BC9F"/>
		<stop offset="0.7252" style="stop-color:#41BC9F"/>
		<stop offset="1" style="stop-color:#41BC9F"/>
	</linearGradient>
	<polygon fill="url(#SVGID_1_)" points="80.064,74.973 33.689,28.598 37.078,25.209 83.453,71.584  "/>
	
		<linearGradient id="SVGID_2_" gradientUnits="userSpaceOnUse" x1="-109.7227" y1="-49.1758" x2="-41.2651" y2="-49.1758" gradientTransform="matrix(0.6756 -0.6756 0.7071 0.7071 144.0208 49.9801)">
		<stop offset="0" style="stop-color:#84D4ED"/>
		<stop offset="0.281" style="stop-color:#83D1EB"/>
		<stop offset="0.3822" style="stop-color:#80C9E4"/>
		<stop offset="0.4543" style="stop-color:#78BFDB"/>
		<stop offset="0.5127" style="stop-color:#6FB1D0"/>
		<stop offset="0.5627" style="stop-color:#64A0C1"/>
		<stop offset="0.6069" style="stop-color:#578CB1"/>
		<stop offset="0.646" style="stop-color:#4877A0"/>
		<stop offset="0.68" style="stop-color:#376490"/>
		<stop offset="0.7252" style="stop-color:#376490"/>
		<stop offset="1" style="stop-color:#376490"/>
	</linearGradient>
	<polygon fill="url(#SVGID_2_)" points="83.065,44.782 36.814,91.03 33.424,87.642 79.676,41.394  "/>
</g>
<g>
	<path fill="#4C4C4D" d="M108.679,53.661V28.643h8.288c2.549,0,4.775,0.484,6.678,1.453s3.379,2.399,4.429,4.291   c1.049,1.892,1.574,4.135,1.574,6.73c0,3.921-1.145,6.992-3.434,9.213c-2.29,2.22-5.372,3.33-9.248,3.33H108.679z M112.174,50.616   h4.55c2.872,0,5.141-0.824,6.808-2.475c1.667-1.648,2.5-3.99,2.5-7.023c0-3.011-0.836-5.335-2.509-6.973s-3.939-2.457-6.799-2.457   h-4.55V50.616z"/>
	<path fill="#4C4C4D" d="M134.182,53.661V35.737h3.322v3.114l-0.069,1.35h0.069c0.426-1.373,1.145-2.497,2.154-3.374   s2.183-1.315,3.521-1.315l0.882,0.087v3.391c-0.3-0.068-0.629-0.104-0.986-0.104c-1.119,0-2.137,0.375-3.054,1.125   s-1.577,1.781-1.981,3.097c-0.289,0.946-0.433,2.019-0.433,3.218v7.336H134.182z"/>
	<path fill="#4C4C4D" d="M146.119,44.699c0-2.814,0.841-5.084,2.523-6.809c1.682-1.724,3.814-2.586,6.397-2.586   c1.636,0,3.05,0.384,4.242,1.15c1.192,0.768,2.077,1.776,2.652,3.027c0.576,1.252,0.864,2.662,0.864,4.23l-0.121,1.488h-13.063   c0.081,1.88,0.708,3.336,1.88,4.368s2.603,1.549,4.29,1.549c0.576,0,1.152-0.072,1.729-0.217c0.576-0.144,1.069-0.32,1.479-0.527   c0.409-0.208,0.778-0.412,1.107-0.614s0.579-0.378,0.752-0.527l0.242-0.208l1.412,2.509c-0.069,0.069-0.173,0.161-0.311,0.276   c-0.139,0.116-0.435,0.32-0.89,0.614s-0.933,0.554-1.434,0.779c-0.501,0.225-1.143,0.43-1.927,0.613   c-0.783,0.185-1.572,0.277-2.367,0.277c-1.837,0-3.479-0.413-4.926-1.237c-1.447-0.824-2.564-1.949-3.351-3.374   C146.513,48.058,146.119,46.463,146.119,44.699z M149.718,42.605h9.585c-0.046-1.465-0.477-2.587-1.291-3.365   c-0.815-0.778-1.829-1.168-3.042-1.168c-1.352,0-2.504,0.398-3.458,1.194C150.559,40.061,149.96,41.174,149.718,42.605z"/>
	<path fill="#4C4C4D" d="M165.561,51.463l1.661-2.439c0.058,0.058,0.138,0.133,0.242,0.225c0.104,0.093,0.326,0.26,0.666,0.502   c0.34,0.242,0.698,0.456,1.072,0.641s0.85,0.352,1.426,0.501c0.576,0.15,1.153,0.226,1.729,0.226c0.798,0,1.495-0.199,2.091-0.598   c0.596-0.397,0.894-0.942,0.894-1.635c0-0.438-0.171-0.833-0.512-1.185c-0.341-0.352-0.784-0.658-1.328-0.917   c-0.544-0.26-1.145-0.517-1.805-0.771c-0.66-0.253-1.314-0.539-1.963-0.856c-0.65-0.316-1.245-0.675-1.786-1.072   c-0.541-0.398-0.98-0.911-1.319-1.54c-0.339-0.628-0.509-1.341-0.509-2.137c0-1.58,0.616-2.825,1.849-3.737   c1.232-0.911,2.776-1.366,4.631-1.366c0.737,0,1.437,0.069,2.1,0.207c0.663,0.139,1.207,0.303,1.633,0.493s0.801,0.384,1.124,0.58   c0.322,0.196,0.553,0.363,0.691,0.502l0.225,0.207l-1.377,2.578c-0.046-0.046-0.11-0.104-0.19-0.173s-0.266-0.196-0.554-0.381   c-0.289-0.185-0.591-0.346-0.908-0.484c-0.317-0.139-0.727-0.266-1.229-0.381c-0.502-0.115-1.018-0.173-1.549-0.173   c-0.821,0-1.519,0.185-2.091,0.554c-0.572,0.369-0.858,0.917-0.858,1.644c0,0.427,0.17,0.813,0.512,1.159s0.784,0.644,1.328,0.891   c0.543,0.249,1.143,0.496,1.796,0.744c0.654,0.248,1.309,0.534,1.964,0.856c0.655,0.323,1.253,0.684,1.794,1.081   c0.54,0.398,0.98,0.912,1.319,1.54c0.339,0.629,0.509,1.341,0.509,2.137c0,1.512-0.596,2.757-1.789,3.737   c-1.192,0.98-2.756,1.471-4.691,1.471c-0.818,0-1.611-0.09-2.377-0.269s-1.406-0.397-1.919-0.657   c-0.513-0.26-0.966-0.519-1.357-0.778c-0.393-0.26-0.681-0.481-0.865-0.666L165.561,51.463z"/>
	<path fill="#4C4C4D" d="M181.708,44.699c0-2.826,0.754-5.098,2.264-6.816s3.457-2.578,5.841-2.578c0.774,0,1.496,0.098,2.166,0.294   c0.67,0.196,1.202,0.433,1.595,0.709c0.393,0.277,0.733,0.554,1.022,0.831c0.289,0.276,0.491,0.513,0.606,0.709l0.156,0.294h0.069   c-0.046-0.357-0.069-0.761-0.069-1.211v-8.287h3.426v25.018h-3.253v-1.695l0.035-1.211h-0.069   c-0.035,0.092-0.095,0.213-0.182,0.363c-0.087,0.149-0.292,0.415-0.615,0.796c-0.324,0.38-0.69,0.718-1.101,1.012   c-0.411,0.294-0.971,0.563-1.681,0.805s-1.482,0.363-2.313,0.363c-2.408,0-4.326-0.862-5.754-2.587   C182.422,49.783,181.708,47.513,181.708,44.699z M185.203,44.699c0,1.926,0.47,3.478,1.412,4.654   c0.942,1.176,2.164,1.765,3.666,1.765c0.693,0,1.34-0.124,1.941-0.372s1.149-0.623,1.646-1.125s0.887-1.179,1.17-2.033   c0.283-0.853,0.424-1.827,0.424-2.924c0-1.106-0.179-2.131-0.537-3.07c-0.358-0.94-0.933-1.728-1.725-2.362   c-0.792-0.634-1.73-0.951-2.816-0.951c-1.479,0-2.712,0.577-3.7,1.73S185.203,42.726,185.203,44.699z"/>
	<path fill="#4C4C4D" d="M202.919,44.699c0-2.814,0.841-5.084,2.523-6.809c1.682-1.724,3.814-2.586,6.397-2.586   c1.636,0,3.05,0.384,4.242,1.15c1.192,0.768,2.077,1.776,2.652,3.027c0.576,1.252,0.864,2.662,0.864,4.23l-0.121,1.488h-13.063   c0.081,1.88,0.708,3.336,1.88,4.368s2.602,1.549,4.29,1.549c0.576,0,1.152-0.072,1.729-0.217c0.576-0.144,1.069-0.32,1.479-0.527   c0.409-0.208,0.778-0.412,1.106-0.614c0.329-0.202,0.58-0.378,0.752-0.527l0.242-0.208l1.412,2.509   c-0.068,0.069-0.173,0.161-0.311,0.276c-0.139,0.116-0.436,0.32-0.891,0.614s-0.933,0.554-1.434,0.779   c-0.502,0.225-1.143,0.43-1.927,0.613c-0.783,0.185-1.572,0.277-2.367,0.277c-1.837,0-3.479-0.413-4.926-1.237   c-1.447-0.824-2.564-1.949-3.351-3.374C203.313,48.058,202.919,46.463,202.919,44.699z M206.518,42.605h9.585   c-0.046-1.465-0.477-2.587-1.291-3.365c-0.815-0.778-1.829-1.168-3.042-1.168c-1.352,0-2.504,0.398-3.458,1.194   C207.359,40.061,206.761,41.174,206.518,42.605z"/>
	<path fill="#4C4C4D" d="M223.82,53.661V35.737h3.321v2.37l-0.068,1.314h0.068c0.196-0.438,0.471-0.876,0.822-1.314   s0.796-0.877,1.332-1.315c0.537-0.438,1.203-0.796,1.998-1.072c0.797-0.277,1.655-0.415,2.578-0.415   c2.094,0,3.643,0.57,4.649,1.713c1.007,1.142,1.51,2.86,1.51,5.155v11.488h-3.425V42.968c0-0.691-0.047-1.286-0.139-1.782   c-0.093-0.495-0.254-0.963-0.484-1.401c-0.231-0.438-0.58-0.77-1.047-0.994c-0.467-0.226-1.047-0.338-1.739-0.338   c-1.349,0-2.534,0.404-3.556,1.211c-1.021,0.808-1.721,1.869-2.102,3.184c-0.196,0.669-0.295,1.477-0.295,2.422v8.392H223.82z"/>
	<path fill="#4C4C4D" d="M254.979,53.661V28.643h8.287c2.549,0,4.775,0.484,6.678,1.453c1.904,0.969,3.379,2.399,4.43,4.291   c1.049,1.892,1.574,4.135,1.574,6.73c0,3.921-1.145,6.992-3.434,9.213c-2.291,2.22-5.373,3.33-9.248,3.33H254.979z M258.473,50.616   h4.551c2.871,0,5.141-0.824,6.809-2.475c1.666-1.648,2.5-3.99,2.5-7.023c0-3.011-0.838-5.335-2.51-6.973s-3.939-2.457-6.799-2.457   h-4.551V50.616z"/>
	<path fill="#4C4C4D" d="M279.028,48.618c0-0.809,0.152-1.542,0.459-2.2s0.688-1.198,1.145-1.62   c0.455-0.422,1.027-0.786,1.715-1.092s1.34-0.537,1.957-0.693c0.619-0.155,1.314-0.279,2.088-0.372   c0.775-0.093,1.4-0.147,1.881-0.165c0.479-0.017,1.002-0.025,1.568-0.025h0.779v-0.328c0-2.607-1.307-3.911-3.918-3.911   c-0.52,0-1.045,0.061-1.576,0.182c-0.529,0.12-0.99,0.264-1.383,0.431c-0.393,0.166-0.75,0.333-1.072,0.499   c-0.322,0.167-0.564,0.308-0.727,0.423l-0.242,0.189l-1.434-2.502c0.07-0.058,0.17-0.136,0.305-0.233   c0.133-0.098,0.42-0.269,0.865-0.511s0.91-0.455,1.396-0.64c0.484-0.185,1.104-0.355,1.854-0.511   c0.752-0.156,1.516-0.233,2.289-0.233c2.275,0,4.027,0.605,5.258,1.816s1.846,2.947,1.846,5.208v11.332h-3.148v-1.698L291,50.541   h-0.068c-0.029,0.047-0.068,0.113-0.119,0.2c-0.049,0.086-0.152,0.254-0.307,0.502c-0.156,0.249-0.33,0.482-0.52,0.702   c-0.191,0.22-0.451,0.468-0.779,0.745c-0.33,0.277-0.68,0.514-1.049,0.71s-0.816,0.361-1.342,0.494   c-0.523,0.133-1.082,0.199-1.67,0.199c-1.656,0-3.092-0.488-4.303-1.464C279.633,51.653,279.028,50.316,279.028,48.618z    M282.522,48.453c0,0.785,0.297,1.46,0.891,2.024c0.592,0.565,1.418,0.848,2.477,0.848c0.922,0,1.756-0.294,2.504-0.882   c0.748-0.589,1.313-1.313,1.691-2.172c0.379-0.858,0.57-1.744,0.57-2.655v-0.571h-0.881c-0.449,0-0.857,0.006-1.227,0.018   c-0.367,0.012-0.814,0.043-1.338,0.095s-0.986,0.124-1.389,0.217c-0.402,0.092-0.82,0.222-1.252,0.389   c-0.432,0.168-0.789,0.37-1.07,0.605c-0.283,0.237-0.516,0.534-0.699,0.892C282.614,47.617,282.522,48.015,282.522,48.453z"/>
	<path fill="#4C4C4D" d="M297.471,38.747v-2.768h2.457v-5.174h3.32v5.174h4.326v2.768h-4.326v7.977c0,0.681,0.094,1.277,0.277,1.79   c0.186,0.514,0.412,0.908,0.684,1.186c0.271,0.276,0.592,0.499,0.961,0.666s0.701,0.274,0.994,0.32   c0.295,0.046,0.598,0.069,0.908,0.069l0.83-0.069v3.045c-0.334,0.046-0.738,0.069-1.211,0.069c-0.553,0-1.09-0.038-1.609-0.112   c-0.518-0.075-1.113-0.251-1.781-0.528c-0.67-0.276-1.246-0.643-1.73-1.099c-0.484-0.455-0.896-1.109-1.236-1.964   c-0.34-0.854-0.51-1.851-0.51-2.993v-8.356H297.471z"/>
	<path fill="#4C4C4D" d="M310.309,48.618c0-0.809,0.152-1.542,0.459-2.2c0.305-0.658,0.688-1.198,1.143-1.62   c0.457-0.422,1.029-0.786,1.715-1.092c0.688-0.306,1.34-0.537,1.959-0.693c0.617-0.155,1.314-0.279,2.088-0.372   s1.4-0.147,1.879-0.165c0.48-0.017,1.004-0.025,1.568-0.025h0.781v-0.328c0-2.607-1.307-3.911-3.92-3.911   c-0.52,0-1.043,0.061-1.574,0.182c-0.531,0.12-0.992,0.264-1.385,0.431c-0.391,0.166-0.748,0.333-1.072,0.499   c-0.322,0.167-0.564,0.308-0.727,0.423l-0.242,0.189l-1.432-2.502c0.068-0.058,0.17-0.136,0.303-0.233s0.422-0.269,0.867-0.511   s0.91-0.455,1.395-0.64c0.486-0.185,1.104-0.355,1.855-0.511c0.752-0.156,1.514-0.233,2.289-0.233c2.273,0,4.027,0.605,5.258,1.816   c1.229,1.211,1.844,2.947,1.844,5.208v11.332h-3.148v-1.698l0.068-1.422h-0.068c-0.029,0.047-0.068,0.113-0.117,0.2   c-0.051,0.086-0.152,0.254-0.309,0.502c-0.156,0.249-0.328,0.482-0.52,0.702c-0.189,0.22-0.449,0.468-0.779,0.745   c-0.328,0.277-0.678,0.514-1.047,0.71s-0.816,0.361-1.342,0.494s-1.082,0.199-1.672,0.199c-1.656,0-3.09-0.488-4.301-1.464   C310.915,51.653,310.309,50.316,310.309,48.618z M313.803,48.453c0,0.785,0.297,1.46,0.889,2.024   c0.594,0.565,1.418,0.848,2.479,0.848c0.92,0,1.754-0.294,2.502-0.882c0.748-0.589,1.313-1.313,1.693-2.172   c0.379-0.858,0.568-1.744,0.568-2.655v-0.571h-0.881c-0.447,0-0.857,0.006-1.225,0.018c-0.369,0.012-0.814,0.043-1.338,0.095   s-0.988,0.124-1.391,0.217c-0.402,0.092-0.82,0.222-1.252,0.389c-0.432,0.168-0.787,0.37-1.07,0.605   c-0.281,0.237-0.514,0.534-0.699,0.892C313.895,47.617,313.803,48.015,313.803,48.453z"/>
	<path fill="#4C4C4D" d="M330.465,53.661V28.643h3.426v8.213l-0.07,1.527h0.07c0.045-0.081,0.109-0.192,0.189-0.332   c0.08-0.141,0.285-0.388,0.613-0.744c0.33-0.355,0.693-0.667,1.092-0.936c0.396-0.269,0.941-0.514,1.635-0.735   c0.691-0.222,1.43-0.332,2.215-0.332c2.404,0,4.318,0.868,5.746,2.604s2.143,4.012,2.143,6.824c0,2.815-0.764,5.079-2.289,6.792   c-1.525,1.712-3.484,2.568-5.877,2.568c-0.75,0-1.453-0.105-2.111-0.316s-1.193-0.465-1.609-0.762   c-0.414-0.296-0.775-0.596-1.08-0.897c-0.307-0.303-0.523-0.563-0.65-0.779l-0.189-0.308h-0.068   c0.045,0.376,0.068,0.82,0.068,1.332v1.298H330.465z M333.786,44.802c0,1.107,0.18,2.131,0.537,3.071s0.932,1.728,1.721,2.361   c0.791,0.635,1.729,0.952,2.813,0.952c1.477,0,2.707-0.577,3.693-1.73s1.48-2.717,1.48-4.688c0-1.927-0.471-3.478-1.41-4.654   c-0.941-1.177-2.16-1.765-3.66-1.765c-1.477,0-2.707,0.539-3.693,1.617C334.28,41.045,333.786,42.657,333.786,44.802z"/>
	<path fill="#4C4C4D" d="M350.258,48.618c0-0.809,0.152-1.542,0.459-2.2c0.305-0.658,0.688-1.198,1.143-1.62   c0.457-0.422,1.029-0.786,1.715-1.092c0.688-0.306,1.34-0.537,1.959-0.693c0.617-0.155,1.314-0.279,2.088-0.372   s1.4-0.147,1.879-0.165c0.48-0.017,1.004-0.025,1.568-0.025h0.781v-0.328c0-2.607-1.307-3.911-3.92-3.911   c-0.52,0-1.043,0.061-1.574,0.182c-0.531,0.12-0.992,0.264-1.385,0.431c-0.391,0.166-0.748,0.333-1.072,0.499   c-0.322,0.167-0.564,0.308-0.727,0.423l-0.242,0.189l-1.432-2.502c0.068-0.058,0.17-0.136,0.303-0.233s0.422-0.269,0.867-0.511   s0.91-0.455,1.395-0.64c0.486-0.185,1.104-0.355,1.855-0.511c0.752-0.156,1.514-0.233,2.289-0.233c2.273,0,4.027,0.605,5.258,1.816   c1.229,1.211,1.844,2.947,1.844,5.208v11.332h-3.148v-1.698l0.068-1.422h-0.068c-0.029,0.047-0.068,0.113-0.117,0.2   c-0.051,0.086-0.152,0.254-0.309,0.502c-0.156,0.249-0.328,0.482-0.52,0.702c-0.189,0.22-0.449,0.468-0.779,0.745   c-0.328,0.277-0.678,0.514-1.047,0.71s-0.816,0.361-1.342,0.494s-1.082,0.199-1.672,0.199c-1.656,0-3.09-0.488-4.301-1.464   C350.864,51.653,350.258,50.316,350.258,48.618z M353.752,48.453c0,0.785,0.297,1.46,0.889,2.024   c0.594,0.565,1.418,0.848,2.479,0.848c0.92,0,1.754-0.294,2.502-0.882c0.748-0.589,1.313-1.313,1.693-2.172   c0.379-0.858,0.568-1.744,0.568-2.655v-0.571h-0.881c-0.447,0-0.857,0.006-1.225,0.018c-0.369,0.012-0.814,0.043-1.338,0.095   s-0.988,0.124-1.391,0.217c-0.402,0.092-0.82,0.222-1.252,0.389c-0.432,0.168-0.787,0.37-1.07,0.605   c-0.281,0.237-0.514,0.534-0.699,0.892C353.844,47.617,353.752,48.015,353.752,48.453z"/>
	<path fill="#4C4C4D" d="M368.956,51.463l1.66-2.439c0.059,0.058,0.139,0.133,0.242,0.225c0.104,0.093,0.326,0.26,0.666,0.502   s0.697,0.456,1.072,0.641s0.85,0.352,1.426,0.501c0.576,0.15,1.152,0.226,1.729,0.226c0.799,0,1.496-0.199,2.092-0.598   c0.596-0.397,0.893-0.942,0.893-1.635c0-0.438-0.17-0.833-0.512-1.185c-0.34-0.352-0.783-0.658-1.326-0.917   c-0.545-0.26-1.146-0.517-1.805-0.771c-0.66-0.253-1.314-0.539-1.965-0.856c-0.65-0.316-1.244-0.675-1.785-1.072   c-0.541-0.398-0.98-0.911-1.32-1.54c-0.338-0.628-0.508-1.341-0.508-2.137c0-1.58,0.615-2.825,1.85-3.737   c1.232-0.911,2.775-1.366,4.631-1.366c0.736,0,1.436,0.069,2.1,0.207c0.662,0.139,1.205,0.303,1.633,0.493   c0.426,0.19,0.801,0.384,1.123,0.58s0.553,0.363,0.691,0.502l0.225,0.207l-1.377,2.578c-0.047-0.046-0.109-0.104-0.191-0.173   c-0.08-0.069-0.266-0.196-0.553-0.381c-0.289-0.185-0.592-0.346-0.908-0.484c-0.318-0.139-0.727-0.266-1.229-0.381   s-1.02-0.173-1.549-0.173c-0.822,0-1.52,0.185-2.092,0.554s-0.859,0.917-0.859,1.644c0,0.427,0.172,0.813,0.514,1.159   c0.34,0.346,0.783,0.644,1.326,0.891c0.545,0.249,1.143,0.496,1.797,0.744s1.309,0.534,1.963,0.856   c0.656,0.323,1.254,0.684,1.795,1.081c0.539,0.398,0.98,0.912,1.318,1.54c0.34,0.629,0.51,1.341,0.51,2.137   c0,1.512-0.596,2.757-1.789,3.737c-1.191,0.98-2.756,1.471-4.691,1.471c-0.818,0-1.611-0.09-2.377-0.269s-1.406-0.397-1.918-0.657   c-0.514-0.26-0.967-0.519-1.359-0.778c-0.391-0.26-0.68-0.481-0.863-0.666L368.956,51.463z"/>
	<path fill="#4C4C4D" d="M385.034,44.699c0-2.814,0.84-5.084,2.521-6.809c1.684-1.724,3.814-2.586,6.398-2.586   c1.635,0,3.049,0.384,4.242,1.15c1.191,0.768,2.076,1.776,2.652,3.027c0.576,1.252,0.863,2.662,0.863,4.23l-0.121,1.488h-13.063   c0.082,1.88,0.709,3.336,1.881,4.368s2.604,1.549,4.289,1.549c0.578,0,1.154-0.072,1.73-0.217c0.576-0.144,1.068-0.32,1.479-0.527   c0.408-0.208,0.777-0.412,1.105-0.614c0.33-0.202,0.58-0.378,0.754-0.527l0.242-0.208l1.41,2.509   c-0.068,0.069-0.172,0.161-0.311,0.276c-0.139,0.116-0.436,0.32-0.891,0.614s-0.932,0.554-1.434,0.779   c-0.5,0.225-1.143,0.43-1.926,0.613c-0.783,0.185-1.572,0.277-2.367,0.277c-1.838,0-3.48-0.413-4.928-1.237   c-1.445-0.824-2.563-1.949-3.35-3.374C385.426,48.058,385.034,46.463,385.034,44.699z M388.631,42.605h9.586   c-0.047-1.465-0.477-2.587-1.291-3.365c-0.816-0.778-1.83-1.168-3.043-1.168c-1.352,0-2.504,0.398-3.457,1.194   C389.473,40.061,388.875,41.174,388.631,42.605z"/>
	<path fill="#4C4C4D" d="M106.093,77.583l1.114-1.486c0.039,0.039,0.095,0.092,0.169,0.16c0.074,0.068,0.233,0.189,0.478,0.365   c0.245,0.174,0.497,0.326,0.758,0.457c0.261,0.129,0.587,0.248,0.98,0.359c0.393,0.109,0.782,0.164,1.168,0.164   c0.686,0,1.262-0.184,1.728-0.553s0.699-0.875,0.699-1.516c0-0.324-0.078-0.619-0.233-0.885s-0.364-0.496-0.626-0.689   c-0.262-0.195-0.563-0.379-0.903-0.555c-0.339-0.174-0.697-0.342-1.072-0.504c-0.375-0.162-0.749-0.328-1.121-0.5   c-0.372-0.172-0.726-0.369-1.062-0.594c-0.336-0.223-0.635-0.469-0.894-0.738c-0.26-0.268-0.466-0.594-0.62-0.977   c-0.154-0.381-0.231-0.803-0.231-1.262c0-1.098,0.426-2.021,1.277-2.773c0.852-0.752,1.926-1.127,3.224-1.127   c0.482,0,0.948,0.047,1.397,0.145c0.45,0.096,0.821,0.211,1.113,0.346s0.553,0.271,0.781,0.41s0.394,0.256,0.497,0.352l0.154,0.145   l-0.878,1.629c-0.032-0.033-0.083-0.076-0.15-0.131c-0.068-0.055-0.207-0.152-0.416-0.291c-0.209-0.141-0.427-0.264-0.653-0.369   c-0.226-0.107-0.505-0.205-0.841-0.293c-0.335-0.086-0.67-0.131-1.005-0.131c-0.738,0-1.346,0.199-1.825,0.598   s-0.719,0.883-0.719,1.453c0,0.311,0.078,0.592,0.233,0.844c0.155,0.254,0.364,0.471,0.626,0.652s0.563,0.352,0.903,0.514   s0.697,0.322,1.073,0.477c0.375,0.156,0.749,0.318,1.121,0.49c0.372,0.172,0.726,0.371,1.063,0.598s0.634,0.48,0.894,0.758   c0.26,0.279,0.466,0.619,0.62,1.02c0.154,0.402,0.231,0.846,0.231,1.332c0,1.113-0.402,2.049-1.205,2.805   c-0.803,0.756-1.876,1.135-3.219,1.135c-0.553,0-1.091-0.063-1.612-0.188s-0.956-0.277-1.303-0.461   c-0.348-0.182-0.657-0.361-0.928-0.541c-0.271-0.18-0.468-0.328-0.591-0.451L106.093,77.583z"/>
	<path fill="#4C4C4D" d="M116.064,69.136h2.161l2.519,6.568c0.058,0.154,0.118,0.332,0.179,0.533   c0.062,0.199,0.108,0.365,0.141,0.494l0.058,0.184h0.039c0.109-0.453,0.223-0.85,0.339-1.191l2.441-6.588h2.083l-4.699,11.838   c-0.297,0.764-0.735,1.348-1.313,1.754c-0.578,0.408-1.226,0.611-1.942,0.611c-0.336,0-0.666-0.053-0.988-0.156   c-0.323-0.102-0.565-0.205-0.727-0.309l-0.233-0.146l0.678-1.473c0.375,0.277,0.766,0.418,1.172,0.418   c0.381,0,0.729-0.131,1.042-0.393c0.313-0.262,0.567-0.623,0.761-1.08l0.494-1.145L116.064,69.136z"/>
	<path fill="#4C4C4D" d="M126.835,77.942l0.93-1.367c0.032,0.033,0.078,0.074,0.136,0.127c0.058,0.051,0.182,0.145,0.373,0.281   c0.19,0.135,0.391,0.254,0.601,0.357c0.209,0.104,0.476,0.197,0.799,0.281s0.646,0.127,0.968,0.127   c0.447,0,0.837-0.113,1.171-0.336c0.333-0.223,0.5-0.527,0.5-0.914c0-0.246-0.096-0.467-0.287-0.664   c-0.191-0.197-0.438-0.369-0.743-0.514c-0.305-0.146-0.642-0.289-1.011-0.432s-0.736-0.301-1.1-0.479s-0.697-0.379-1-0.602   s-0.549-0.51-0.739-0.861c-0.19-0.354-0.285-0.752-0.285-1.197c0-0.885,0.345-1.582,1.035-2.094c0.69-0.51,1.555-0.764,2.593-0.764   c0.413,0,0.805,0.037,1.176,0.115s0.676,0.17,0.915,0.275c0.239,0.107,0.448,0.215,0.629,0.326c0.18,0.109,0.31,0.203,0.387,0.279   l0.126,0.117l-0.771,1.443c-0.026-0.025-0.062-0.059-0.106-0.096c-0.045-0.039-0.148-0.111-0.31-0.215   c-0.162-0.102-0.331-0.193-0.509-0.271c-0.178-0.076-0.407-0.148-0.688-0.213c-0.281-0.064-0.57-0.096-0.867-0.096   c-0.46,0-0.851,0.104-1.171,0.309c-0.321,0.207-0.481,0.514-0.481,0.922c0,0.238,0.095,0.455,0.287,0.648   c0.191,0.193,0.439,0.361,0.744,0.5c0.304,0.139,0.64,0.277,1.006,0.416c0.366,0.139,0.732,0.299,1.1,0.479   c0.367,0.182,0.702,0.383,1.004,0.605c0.303,0.225,0.549,0.512,0.739,0.863s0.285,0.75,0.285,1.197   c0,0.846-0.334,1.543-1.001,2.092c-0.668,0.549-1.543,0.824-2.627,0.824c-0.458,0-0.902-0.051-1.332-0.15s-0.788-0.223-1.075-0.369   c-0.287-0.145-0.541-0.289-0.76-0.436c-0.22-0.145-0.381-0.27-0.484-0.373L126.835,77.942z"/>
	<path fill="#4C4C4D" d="M135.635,70.821v-1.551h1.376v-2.896h1.86v2.896h2.422v1.551h-2.422v4.467c0,0.381,0.052,0.715,0.155,1.002   c0.103,0.287,0.231,0.508,0.383,0.664c0.151,0.154,0.331,0.279,0.538,0.373c0.207,0.094,0.393,0.152,0.557,0.18   c0.165,0.025,0.334,0.037,0.509,0.037l0.465-0.037v1.705c-0.188,0.025-0.414,0.037-0.678,0.037c-0.31,0-0.61-0.02-0.901-0.063   c-0.291-0.041-0.624-0.141-0.998-0.295s-0.698-0.359-0.969-0.615c-0.271-0.256-0.502-0.621-0.693-1.1s-0.286-1.037-0.286-1.676   v-4.68H135.635z"/>
	<path fill="#4C4C4D" d="M142.941,74.153c0-1.576,0.471-2.846,1.413-3.813c0.942-0.965,2.136-1.447,3.583-1.447   c0.916,0,1.708,0.215,2.375,0.643c0.667,0.43,1.163,0.996,1.485,1.697c0.322,0.699,0.484,1.49,0.484,2.367l-0.067,0.834h-7.315   c0.045,1.053,0.396,1.869,1.053,2.447s1.458,0.867,2.402,0.867c0.323,0,0.646-0.041,0.968-0.121   c0.323-0.082,0.599-0.18,0.828-0.297c0.229-0.115,0.436-0.23,0.62-0.344s0.324-0.211,0.421-0.295l0.136-0.117l0.791,1.406   c-0.039,0.037-0.097,0.09-0.174,0.154c-0.078,0.064-0.244,0.18-0.499,0.344s-0.522,0.311-0.803,0.436   c-0.281,0.127-0.64,0.242-1.079,0.344c-0.439,0.104-0.881,0.156-1.326,0.156c-1.029,0-1.949-0.232-2.759-0.693   c-0.811-0.461-1.436-1.092-1.876-1.889C143.161,76.034,142.941,75.142,142.941,74.153z M144.956,72.981h5.368   c-0.026-0.82-0.267-1.449-0.723-1.885c-0.457-0.436-1.024-0.654-1.704-0.654c-0.757,0-1.402,0.223-1.937,0.668   C145.427,71.558,145.092,72.181,144.956,72.981z"/>
	<path fill="#4C4C4D" d="M154.645,79.173V69.136h1.86v1.326l-0.039,0.736h0.039c0.252-0.619,0.703-1.158,1.352-1.617   c0.649-0.459,1.352-0.688,2.107-0.688c1.667,0,2.671,0.762,3.013,2.285h0.039c0.291-0.639,0.764-1.18,1.419-1.623   c0.656-0.441,1.375-0.662,2.156-0.662c1.121,0,1.951,0.318,2.492,0.959c0.542,0.639,0.812,1.602,0.812,2.887v6.434h-1.918v-6.018   c0-0.387-0.023-0.721-0.068-0.998c-0.045-0.277-0.129-0.537-0.252-0.779c-0.123-0.242-0.307-0.426-0.552-0.553   c-0.246-0.125-0.549-0.189-0.911-0.189c-0.672,0-1.263,0.248-1.773,0.742c-0.511,0.494-0.859,1.104-1.046,1.826   c-0.097,0.42-0.146,0.881-0.146,1.385v4.584h-1.918v-6.018c0-0.297-0.01-0.553-0.029-0.77c-0.02-0.217-0.065-0.441-0.136-0.674   c-0.071-0.232-0.168-0.422-0.291-0.572c-0.123-0.148-0.294-0.27-0.513-0.363c-0.22-0.094-0.478-0.141-0.775-0.141   c-0.704,0-1.31,0.252-1.816,0.756c-0.507,0.504-0.861,1.135-1.061,1.891c-0.084,0.342-0.126,0.777-0.126,1.307v4.584H154.645z"/>
	<path fill="#4C4C4D" d="M171.955,77.942l0.93-1.367c0.032,0.033,0.078,0.074,0.136,0.127c0.058,0.051,0.182,0.145,0.373,0.281   c0.19,0.135,0.391,0.254,0.601,0.357c0.209,0.104,0.476,0.197,0.799,0.281s0.646,0.127,0.968,0.127   c0.447,0,0.837-0.113,1.171-0.336c0.333-0.223,0.5-0.527,0.5-0.914c0-0.246-0.096-0.467-0.287-0.664   c-0.191-0.197-0.438-0.369-0.743-0.514c-0.305-0.146-0.642-0.289-1.011-0.432s-0.736-0.301-1.1-0.479s-0.697-0.379-1-0.602   s-0.549-0.51-0.739-0.861c-0.19-0.354-0.285-0.752-0.285-1.197c0-0.885,0.345-1.582,1.035-2.094c0.69-0.51,1.555-0.764,2.593-0.764   c0.413,0,0.805,0.037,1.176,0.115s0.676,0.17,0.915,0.275c0.239,0.107,0.448,0.215,0.629,0.326c0.18,0.109,0.31,0.203,0.387,0.279   l0.126,0.117l-0.771,1.443c-0.026-0.025-0.062-0.059-0.106-0.096c-0.045-0.039-0.148-0.111-0.31-0.215   c-0.162-0.102-0.331-0.193-0.509-0.271c-0.178-0.076-0.407-0.148-0.688-0.213c-0.281-0.064-0.57-0.096-0.867-0.096   c-0.46,0-0.851,0.104-1.171,0.309c-0.321,0.207-0.481,0.514-0.481,0.922c0,0.238,0.095,0.455,0.287,0.648   c0.191,0.193,0.439,0.361,0.744,0.5c0.304,0.139,0.64,0.277,1.006,0.416c0.366,0.139,0.732,0.299,1.1,0.479   c0.367,0.182,0.702,0.383,1.004,0.605c0.303,0.225,0.549,0.512,0.739,0.863s0.285,0.75,0.285,1.197   c0,0.846-0.334,1.543-1.001,2.092c-0.668,0.549-1.543,0.824-2.627,0.824c-0.458,0-0.902-0.051-1.332-0.15s-0.788-0.223-1.075-0.369   c-0.287-0.145-0.541-0.289-0.76-0.436c-0.22-0.145-0.381-0.27-0.484-0.373L171.955,77.942z"/>
	<path fill="#4C4C4D" d="M186.21,72.147c0-1,0.183-1.945,0.547-2.834c0.365-0.887,0.862-1.652,1.492-2.295s1.389-1.152,2.277-1.527   c0.888-0.373,1.833-0.561,2.834-0.561c0.628,0,1.234,0.057,1.818,0.172s1.064,0.254,1.444,0.416   c0.379,0.164,0.716,0.326,1.011,0.49c0.295,0.162,0.51,0.301,0.646,0.416l0.194,0.172l-1.005,1.467   c-0.045-0.037-0.106-0.088-0.184-0.15c-0.078-0.061-0.25-0.17-0.519-0.326c-0.268-0.154-0.546-0.295-0.833-0.418   s-0.651-0.232-1.09-0.33c-0.439-0.098-0.882-0.146-1.328-0.146c-1.066,0-2.004,0.244-2.815,0.73s-1.424,1.137-1.841,1.953   c-0.417,0.818-0.625,1.729-0.625,2.732c0,1.066,0.226,2.02,0.678,2.859s1.071,1.488,1.855,1.947s1.662,0.688,2.63,0.688   c0.452,0,0.898-0.059,1.337-0.18c0.439-0.119,0.811-0.264,1.114-0.436c0.303-0.17,0.573-0.342,0.809-0.514   c0.236-0.17,0.412-0.318,0.528-0.439l0.174-0.176v-2.025h-2.248v-1.705h4.069v7.045h-1.763V78.3l0.029-0.6h-0.049   c-0.039,0.045-0.098,0.105-0.179,0.184c-0.081,0.078-0.258,0.215-0.533,0.412s-0.565,0.371-0.872,0.523   c-0.307,0.15-0.707,0.289-1.201,0.412c-0.494,0.121-1,0.184-1.517,0.184c-0.937,0-1.825-0.18-2.664-0.539   c-0.84-0.357-1.571-0.852-2.195-1.482c-0.623-0.629-1.117-1.398-1.482-2.311C186.393,74.173,186.21,73.194,186.21,72.147z"/>
	<path fill="#4C4C4D" d="M201.829,79.173V69.136h1.86v1.742l-0.039,0.756h0.039c0.239-0.768,0.641-1.398,1.207-1.889   c0.565-0.49,1.222-0.736,1.972-0.736l0.494,0.049v1.898c-0.168-0.039-0.353-0.059-0.553-0.059c-0.626,0-1.196,0.211-1.71,0.631   c-0.513,0.42-0.883,0.998-1.109,1.734c-0.161,0.529-0.242,1.131-0.242,1.801v4.109H201.829z"/>
	<path fill="#4C4C4D" d="M208.475,74.134c0-0.742,0.142-1.439,0.426-2.092s0.669-1.209,1.156-1.668   c0.487-0.457,1.061-0.818,1.722-1.084s1.364-0.396,2.107-0.396c0.744,0,1.446,0.131,2.107,0.396s1.235,0.627,1.722,1.084   c0.487,0.459,0.873,1.016,1.156,1.668c0.284,0.652,0.426,1.35,0.426,2.092c0,0.996-0.242,1.898-0.725,2.709   c-0.484,0.811-1.139,1.441-1.964,1.895c-0.825,0.451-1.733,0.678-2.723,0.678s-1.897-0.227-2.722-0.678   c-0.826-0.453-1.48-1.084-1.964-1.895S208.475,75.13,208.475,74.134z M210.433,74.134c0,1.041,0.335,1.902,1.009,2.588   c0.672,0.684,1.487,1.027,2.444,1.027c0.97,0,1.788-0.344,2.454-1.027c0.667-0.686,1-1.547,1-2.588c0-1.027-0.333-1.879-1-2.557   c-0.666-0.68-1.484-1.018-2.454-1.018c-0.957,0-1.772,0.338-2.444,1.018C210.768,72.255,210.433,73.106,210.433,74.134z"/>
	<path fill="#4C4C4D" d="M221.439,75.558v-6.422h1.919v5.973c0,0.381,0.023,0.707,0.072,0.982c0.049,0.273,0.137,0.531,0.267,0.773   c0.13,0.24,0.323,0.424,0.583,0.551c0.258,0.125,0.582,0.188,0.971,0.188c0.983,0,1.771-0.371,2.363-1.111s0.889-1.631,0.889-2.668   v-4.688h1.918v10.037h-1.851v-1.34l0.038-0.742h-0.039c-0.245,0.586-0.698,1.119-1.358,1.602c-0.659,0.48-1.439,0.723-2.339,0.723   c-1.141,0-1.998-0.314-2.572-0.945C221.725,77.841,221.439,76.87,221.439,75.558z"/>
	<path fill="#4C4C4D" d="M233.443,83.146v-14.01h1.764v0.861l-0.039,0.746h0.039c0.025-0.053,0.063-0.119,0.111-0.201   c0.048-0.08,0.166-0.229,0.354-0.439c0.188-0.213,0.397-0.4,0.63-0.564c0.232-0.162,0.553-0.311,0.959-0.445   c0.407-0.133,0.846-0.199,1.318-0.199c1.346,0,2.419,0.484,3.219,1.457c0.799,0.973,1.199,2.246,1.199,3.822   c0,1.57-0.428,2.836-1.281,3.799c-0.855,0.963-1.945,1.443-3.273,1.443c-0.413,0-0.801-0.057-1.162-0.168s-0.654-0.248-0.877-0.406   c-0.223-0.16-0.418-0.32-0.586-0.479c-0.168-0.16-0.287-0.297-0.358-0.412l-0.097-0.164h-0.039   c0.025,0.238,0.039,0.529,0.039,0.869v4.49H233.443z M235.303,74.212c0,0.613,0.105,1.188,0.314,1.719   c0.211,0.533,0.537,0.977,0.979,1.328c0.443,0.352,0.958,0.527,1.546,0.527c0.827,0,1.517-0.322,2.068-0.969   c0.552-0.645,0.829-1.521,0.829-2.625c0-1.078-0.264-1.947-0.79-2.605c-0.526-0.66-1.21-0.988-2.05-0.988   c-0.826,0-1.516,0.301-2.068,0.904C235.58,72.108,235.303,73.011,235.303,74.212z"/>
</g>
</svg>